<svg xmlns="http://www.w3.org/2000/svg" width="24" height="21.241" viewBox="0 0 24 21.241">
  <g id="Group_1" data-name="Group 1" transform="translate(-435.494 -840)">
    <path id="Path_11" data-name="Path 11" d="M355.872,384.8H335.116a1.619,1.619,0,1,0,0,3.238h20.757a1.619,1.619,0,1,0,0-3.238Z" transform="translate(102 464.075)" fill="#ff7904" />
    <path id="Path_13" data-name="Path 13" d="M387.3,338.5a2.5,2.5,0,1,0-2.5-2.5A2.51,2.51,0,0,0,387.3,338.5Z" transform="translate(60.073 506.504)" fill="#ff7904" />
    <path id="Path_14" data-name="Path 14" d="M387.3,436.023a2.5,2.5,0,1,0,2.5,2.5A2.51,2.51,0,0,0,387.3,436.023Z" transform="translate(60.073 420.218)" fill="#ff7904" />
  </g>
</svg>